<mxfile host="app.diagrams.net" modified="2023-08-08T23:22:36.353Z" agent="Mozilla/5.0 (Macintosh; Intel Mac OS X 10_15_7) AppleWebKit/537.36 (KHTML, like Gecko) Chrome/115.0.0.0 Safari/537.36" etag="Mp5hDLKz_5rnGO77iChK" version="21.6.7" type="github">
  <diagram name="Page-1" id="_RTYnJAU0Kp-dnBnBFhJ">
    <mxGraphModel dx="954" dy="517" grid="1" gridSize="10" guides="1" tooltips="1" connect="1" arrows="1" fold="1" page="1" pageScale="1" pageWidth="850" pageHeight="1100" math="0" shadow="0">
      <root>
        <mxCell id="0" />
        <mxCell id="1" parent="0" />
        <mxCell id="gwGJhFZpjjnC-8ThC2dh-1" value="&lt;font style=&quot;font-size: 24px;&quot;&gt;Backend&lt;/font&gt;" style="rounded=1;whiteSpace=wrap;html=1;" vertex="1" parent="1">
          <mxGeometry x="310" y="200" width="180" height="100" as="geometry" />
        </mxCell>
        <mxCell id="gwGJhFZpjjnC-8ThC2dh-4" value="" style="endArrow=none;html=1;rounded=0;entryX=0.5;entryY=1;entryDx=0;entryDy=0;" edge="1" parent="1" target="gwGJhFZpjjnC-8ThC2dh-1">
          <mxGeometry width="50" height="50" relative="1" as="geometry">
            <mxPoint x="401" y="480" as="sourcePoint" />
            <mxPoint x="431" y="250" as="targetPoint" />
          </mxGeometry>
        </mxCell>
        <mxCell id="gwGJhFZpjjnC-8ThC2dh-6" value="" style="endArrow=classic;html=1;rounded=0;" edge="1" parent="1" target="gwGJhFZpjjnC-8ThC2dh-8">
          <mxGeometry width="50" height="50" relative="1" as="geometry">
            <mxPoint x="401" y="360" as="sourcePoint" />
            <mxPoint x="501" y="360" as="targetPoint" />
          </mxGeometry>
        </mxCell>
        <mxCell id="gwGJhFZpjjnC-8ThC2dh-7" value="" style="endArrow=classic;html=1;rounded=0;entryX=1;entryY=0.5;entryDx=0;entryDy=0;" edge="1" parent="1" target="gwGJhFZpjjnC-8ThC2dh-9">
          <mxGeometry width="50" height="50" relative="1" as="geometry">
            <mxPoint x="401" y="360" as="sourcePoint" />
            <mxPoint x="301" y="360" as="targetPoint" />
          </mxGeometry>
        </mxCell>
        <mxCell id="gwGJhFZpjjnC-8ThC2dh-8" value="Бизнес логика" style="whiteSpace=wrap;html=1;aspect=fixed;" vertex="1" parent="1">
          <mxGeometry x="520" y="320" width="80" height="80" as="geometry" />
        </mxCell>
        <mxCell id="gwGJhFZpjjnC-8ThC2dh-9" value="SSR(Next.js)" style="whiteSpace=wrap;html=1;aspect=fixed;" vertex="1" parent="1">
          <mxGeometry x="200" y="320" width="80" height="80" as="geometry" />
        </mxCell>
      </root>
    </mxGraphModel>
  </diagram>
</mxfile>
